{
  "accessors": [
    {
      "bufferView": 2,
      "componentType": 5126,
      "count": 1660,
      "max": [
        2.67499041557312,
        238.0718231201172,
        14.789664268493652
      ],
      "min": [
        -77.97163391113281,
        12.38124942779541,
        -4.53658390045166
      ],
      "type": "VEC3"
    },
    {
      "bufferView": 2,
      "byteOffset": 19920,
      "componentType": 5126,
      "count": 1660,
      "max": [
        1.0,
        1.0,
        1.0
      ],
      "min": [
        -1.0,
        -1.0,
        -1.0
      ],
      "type": "VEC3"
    },
    {
      "bufferView": 3,
      "componentType": 5126,
      "count": 1660,
      "max": [
        1.0,
        0.978800892829895,
        1.0,
        -1.0
      ],
      "min": [
        -1.0,
        -0.978800892829895,
        -1.0,
        -1.0
      ],
      "type": "VEC4"
    },
    {
      "bufferView": 1,
      "componentType": 5126,
      "count": 1660,
      "max": [
        0.963770866394043,
        0.9242888689041138
      ],
      "min": [
        0.004572870675474405,
        0.004572868347167969
      ],
      "type": "VEC2"
    },
    {
      "bufferView": 0,
      "componentType": 5125,
      "count": 5814,
      "type": "SCALAR"
    },
    {
      "bufferView": 2,
      "byteOffset": 39840,
      "componentType": 5126,
      "count": 312,
      "max": [
        26.738788604736328,
        243.49855041503906,
        8.079852104187012
      ],
      "min": [
        -67.41854858398438,
        8.869126319885254,
        -2.6896302700042725
      ],
      "type": "VEC3"
    },
    {
      "bufferView": 2,
      "byteOffset": 43584,
      "componentType": 5126,
      "count": 312,
      "max": [
        1.0,
        1.0,
        1.0
      ],
      "min": [
        -1.0,
        -1.0,
        -1.0
      ],
      "type": "VEC3"
    },
    {
      "bufferView": 3,
      "byteOffset": 26560,
      "componentType": 5126,
      "count": 312,
      "max": [
        1.0,
        0.9999627470970154,
        1.0,
        -1.0
      ],
      "min": [
        -1.0,
        -0.7068371176719666,
        -1.0,
        -1.0
      ],
      "type": "VEC4"
    },
    {
      "bufferView": 1,
      "byteOffset": 13280,
      "componentType": 5126,
      "count": 312,
      "max": [
        0.47973811626434326,
        0.9970015287399292
      ],
      "min": [
        0.011631113477051258,
        0.10277974605560303
      ],
      "type": "VEC2"
    },
    {
      "bufferView": 0,
      "byteOffset": 23256,
      "componentType": 5125,
      "count": 660,
      "type": "SCALAR"
    },
    {
      "bufferView": 2,
      "byteOffset": 47328,
      "componentType": 5126,
      "count": 1868,
      "max": [
        218.89947509765625,
        258.5113830566406,
        498.6094970703125
      ],
      "min": [
        -121.6464614868164,
        -77.41059112548828,
        -451.85015869140625
      ],
      "type": "VEC3"
    },
    {
      "bufferView": 2,
      "byteOffset": 69744,
      "componentType": 5126,
      "count": 1868,
      "max": [
        1.0,
        1.0,
        1.0
      ],
      "min": [
        -1.0,
        -1.0,
        -1.0
      ],
      "type": "VEC3"
    },
    {
      "bufferView": 3,
      "byteOffset": 31552,
      "componentType": 5126,
      "count": 1868,
      "max": [
        1.0,
        1.0,
        1.0,
        1.0
      ],
      "min": [
        -1.0,
        -1.0,
        -1.0,
        -1.0
      ],
      "type": "VEC4"
    },
    {
      "bufferView": 1,
      "byteOffset": 15776,
      "componentType": 5126,
      "count": 1868,
      "max": [
        0.9249249696731567,
        0.9989151358604431
      ],
      "min": [
        0.0010848555248230696,
        0.0010849237442016602
      ],
      "type": "VEC2"
    },
    {
      "bufferView": 0,
      "byteOffset": 25896,
      "componentType": 5125,
      "count": 4404,
      "type": "SCALAR"
    },
    {
      "bufferView": 2,
      "byteOffset": 92160,
      "componentType": 5126,
      "count": 3530,
      "max": [
        280.453125,
        332.41064453125,
        535.2831420898438
      ],
      "min": [
        -183.20010375976563,
        -67.03885650634766,
        -488.5238037109375
      ],
      "type": "VEC3"
    },
    {
      "bufferView": 2,
      "byteOffset": 134520,
      "componentType": 5126,
      "count": 3530,
      "max": [
        0.9983344674110413,
        1.0,
        1.0
      ],
      "min": [
        -1.0,
        -1.0,
        -1.0
      ],
      "type": "VEC3"
    },
    {
      "bufferView": 3,
      "byteOffset": 61440,
      "componentType": 5126,
      "count": 3530,
      "max": [
        1.0,
        0.9999944567680359,
        1.0,
        1.0
      ],
      "min": [
        -1.0,
        -0.9999315142631531,
        -1.0,
        -1.0
      ],
      "type": "VEC4"
    },
    {
      "bufferView": 1,
      "byteOffset": 30720,
      "componentType": 5126,
      "count": 3530,
      "max": [
        0.9831361174583435,
        0.9989227056503296
      ],
      "min": [
        0.0010772976092994213,
        0.0010772943496704102
      ],
      "type": "VEC2"
    },
    {
      "bufferView": 0,
      "byteOffset": 43512,
      "componentType": 5125,
      "count": 11850,
      "type": "SCALAR"
    },
    {
      "bufferView": 2,
      "byteOffset": 176880,
      "componentType": 5126,
      "count": 396,
      "max": [
        190.79917907714844,
        226.09066772460938,
        398.6322326660156
      ],
      "min": [
        -92.45170593261719,
        75.10237121582031,
        -351.8728942871094
      ],
      "type": "VEC3"
    },
    {
      "bufferView": 2,
      "byteOffset": 181632,
      "componentType": 5126,
      "count": 396,
      "max": [
        1.0,
        1.0,
        1.0
      ],
      "min": [
        -1.0,
        -1.0,
        -1.0
      ],
      "type": "VEC3"
    },
    {
      "bufferView": 1,
      "byteOffset": 58960,
      "componentType": 5126,
      "count": 396,
      "max": [
        0.9989055395126343,
        0.9989055395126343
      ],
      "min": [
        0.0010944334790110588,
        0.0071593523025512695
      ],
      "type": "VEC2"
    },
    {
      "bufferView": 0,
      "byteOffset": 90912,
      "componentType": 5125,
      "count": 924,
      "type": "SCALAR"
    }
  ],
  "asset": {
    "extras": {
      "author": "Mehdi Shahsavan (https://sketchfab.com/ahmagh2e)",
      "license": "CC-BY-4.0 (http://creativecommons.org/licenses/by/4.0/)",
      "source": "https://sketchfab.com/3d-models/security-room--parking-19-mb-4caa774aed9f497cbf9f5ce9ed310e78",
      "title": "Security_room_ Parking_19_MB"
    },
    "generator": "Sketchfab-16.54.0",
    "version": "2.0"
  },
  "bufferViews": [
    {
      "buffer": 0,
      "byteLength": 94608,
      "name": "floatBufferViews",
      "target": 34963
    },
    {
      "buffer": 0,
      "byteLength": 62128,
      "byteOffset": 94608,
      "byteStride": 8,
      "name": "floatBufferViews",
      "target": 34962
    },
    {
      "buffer": 0,
      "byteLength": 186384,
      "byteOffset": 156736,
      "byteStride": 12,
      "name": "floatBufferViews",
      "target": 34962
    },
    {
      "buffer": 0,
      "byteLength": 117920,
      "byteOffset": 343120,
      "byteStride": 16,
      "name": "floatBufferViews",
      "target": 34962
    }
  ],
  "buffers": [
    {
      "byteLength": 461040,
      "uri": "scene.bin"
    }
  ],
  "extensionsUsed": [
    "KHR_materials_emissive_strength",
    "KHR_materials_transmission"
  ],
  "images": [
    {
      "uri": "textures/Door_baseColor.png"
    },
    {
      "uri": "textures/Door_metallicRoughness.png"
    },
    {
      "uri": "textures/Door_normal.png"
    },
    {
      "uri": "textures/material_baseColor.png"
    },
    {
      "uri": "textures/material_metallicRoughness.png"
    },
    {
      "uri": "textures/material_emissive.png"
    },
    {
      "uri": "textures/material_normal.png"
    },
    {
      "uri": "textures/material_2_baseColor.png"
    },
    {
      "uri": "textures/material_2_metallicRoughness.png"
    },
    {
      "uri": "textures/material_2_normal.png"
    }
  ],
  "materials": [
    {
      "alphaCutoff": 0.8395108960080317,
      "alphaMode": "MASK",
      "doubleSided": true,
      "name": "Door",
      "normalTexture": {
        "index": 2
      },
      "pbrMetallicRoughness": {
        "baseColorTexture": {
          "index": 0
        },
        "metallicRoughnessTexture": {
          "index": 1
        }
      }
    },
    {
      "doubleSided": true,
      "emissiveFactor": [
        1.0,
        1.0,
        1.0
      ],
      "emissiveTexture": {
        "index": 5
      },
      "extensions": {
        "KHR_materials_emissive_strength": {
          "emissiveStrength": 3.4626711788247992
        }
      },
      "name": "material",
      "normalTexture": {
        "index": 6
      },
      "pbrMetallicRoughness": {
        "baseColorTexture": {
          "index": 3
        },
        "metallicRoughnessTexture": {
          "index": 4
        }
      }
    },
    {
      "doubleSided": true,
      "name": "material_2",
      "normalTexture": {
        "index": 9
      },
      "pbrMetallicRoughness": {
        "baseColorTexture": {
          "index": 7
        },
        "metallicRoughnessTexture": {
          "index": 8
        }
      }
    },
    {
      "alphaMode": "BLEND",
      "doubleSided": true,
      "extensions": {
        "KHR_materials_transmission": {
          "transmissionFactor": 1.0
        }
      },
      "name": "Glass",
      "pbrMetallicRoughness": {
        "baseColorFactor": [
          0.603827,
          0.603827,
          0.603827,
          0.25
        ],
        "metallicFactor": 0.0,
        "roughnessFactor": 0.04756828460010884
      }
    }
  ],
  "meshes": [
    {
      "name": "_1_3__0_Door_0",
      "primitives": [
        {
          "attributes": {
            "NORMAL": 1,
            "POSITION": 0,
            "TANGENT": 2,
            "TEXCOORD_0": 3
          },
          "indices": 4,
          "material": 0,
          "mode": 4
        }
      ]
    },
    {
      "name": "_1_3__0_2_Door_0",
      "primitives": [
        {
          "attributes": {
            "NORMAL": 6,
            "POSITION": 5,
            "TANGENT": 7,
            "TEXCOORD_0": 8
          },
          "indices": 9,
          "material": 0,
          "mode": 4
        }
      ]
    },
    {
      "name": "Base_01_0",
      "primitives": [
        {
          "attributes": {
            "NORMAL": 11,
            "POSITION": 10,
            "TANGENT": 12,
            "TEXCOORD_0": 13
          },
          "indices": 14,
          "material": 1,
          "mode": 4
        }
      ]
    },
    {
      "name": "Base_02_0",
      "primitives": [
        {
          "attributes": {
            "NORMAL": 16,
            "POSITION": 15,
            "TANGENT": 17,
            "TEXCOORD_0": 18
          },
          "indices": 19,
          "material": 2,
          "mode": 4
        }
      ]
    },
    {
      "name": "Base_Glass_0",
      "primitives": [
        {
          "attributes": {
            "NORMAL": 21,
            "POSITION": 20,
            "TEXCOORD_0": 22
          },
          "indices": 23,
          "material": 3,
          "mode": 4
        }
      ]
    }
  ],
  "nodes": [
    {
      "children": [
        1
      ],
      "matrix": [
        1.0,
        0.0,
        0.0,
        0.0,
        0.0,
        2.220446049250313e-16,
        -1.0,
        0.0,
        0.0,
        1.0,
        2.220446049250313e-16,
        0.0,
        0.0,
        0.0,
        0.0,
        1.0
      ],
      "name": "Sketchfab_model"
    },
    {
      "children": [
        2
      ],
      "matrix": [
        0.009999999776482582,
        0.0,
        0.0,
        0.0,
        0.0,
        0.0,
        0.009999999776482582,
        0.0,
        0.0,
        -0.009999999776482582,
        0.0,
        0.0,
        0.0,
        0.0,
        0.0,
        1.0
      ],
      "name": "1bc654d032bb44ad9149b73decbc1c38.fbx"
    },
    {
      "children": [
        3,
        5,
        10
      ],
      "name": "RootNode"
    },
    {
      "children": [
        4
      ],
      "matrix": [
        0.667605208232214,
        -0.010779232082025355,
        0.7444374346423909,
        0.0,
        0.007196689589167474,
        0.9999419023901948,
        0.008024930107816089,
        0.0,
        -0.7444806871908628,
        -8.847089727481716e-17,
        0.6676439967526262,
        0.0,
        -576.4476318359375,
        134.70187377929688,
        -850.0310668945313,
        1.0
      ],
      "name": "CINEMA_4D_Editor"
    },
    {
      "name": "Object_4"
    },
    {
      "children": [
        6,
        8
      ],
      "matrix": [
        2.5809568482415557e-08,
        -1.6543612251060553e-24,
        -0.9999999999999996,
        0.0,
        2.1073424255447034e-08,
        0.9999999999999998,
        5.438959821452086e-16,
        0.0,
        0.9999999999999993,
        -2.1073424255447044e-08,
        2.5809568482415557e-08,
        0.0,
        -132.32579040527344,
        -6.565357685089111,
        -194.36578369140625,
        1.0
      ],
      "name": "Door"
    },
    {
      "children": [
        7
      ],
      "matrix": [
        0.8517269479190599,
        -9.290984589463728e-09,
        0.52398588357749,
        0.0,
        1.0908407417310693e-08,
        0.9999999999999999,
        6.347509851717904e-17,
        0.0,
        -0.52398588357749,
        5.715851444919337e-09,
        0.8517269479190599,
        0.0,
        19.66764259338379,
        0.09583791345357895,
        0.6912474036216736,
        1.0
      ],
      "name": "_1_3__0"
    },
    {
      "mesh": 0,
      "name": "_1_3__0_Door_0"
    },
    {
      "children": [
        9
      ],
      "matrix": [
        1.0,
        -9.980677955091745e-17,
        -4.736144365580226e-09,
        0.0,
        9.980677534437621e-17,
        1.0,
        -8.881784247819879e-16,
        0.0,
        4.736144365580226e-09,
        8.881784243092886e-16,
        1.0,
        0.0,
        2.3592021465301514,
        -0.09583815187215805,
        1.2729355096817017,
        1.0
      ],
      "name": "_1_3__0_2"
    },
    {
      "mesh": 1,
      "name": "_1_3__0_2_Door_0"
    },
    {
      "children": [
        11,
        12,
        13
      ],
      "matrix": [
        1.0,
        0.0,
        0.0,
        0.0,
        0.0,
        1.0,
        0.0,
        0.0,
        0.0,
        0.0,
        1.0,
        0.0,
        -33.8266716003418,
        67.03885650634766,
        -25.086416244506836,
        1.0
      ],
      "name": "Base"
    },
    {
      "mesh": 2,
      "name": "Base_01_0"
    },
    {
      "mesh": 3,
      "name": "Base_02_0"
    },
    {
      "mesh": 4,
      "name": "Base_Glass_0"
    }
  ],
  "samplers": [
    {
      "magFilter": 9729,
      "minFilter": 9987,
      "wrapS": 10497,
      "wrapT": 10497
    }
  ],
  "scene": 0,
  "scenes": [
    {
      "name": "Sketchfab_Scene",
      "nodes": [
        0
      ]
    }
  ],
  "textures": [
    {
      "sampler": 0,
      "source": 0
    },
    {
      "sampler": 0,
      "source": 1
    },
    {
      "sampler": 0,
      "source": 2
    },
    {
      "sampler": 0,
      "source": 3
    },
    {
      "sampler": 0,
      "source": 4
    },
    {
      "sampler": 0,
      "source": 5
    },
    {
      "sampler": 0,
      "source": 6
    },
    {
      "sampler": 0,
      "source": 7
    },
    {
      "sampler": 0,
      "source": 8
    },
    {
      "sampler": 0,
      "source": 9
    }
  ]
}
